<?xml version="1.0" ?><!DOCTYPE svg  PUBLIC '-//W3C//DTD SVG 1.1//EN'  'http://www.w3.org/Graphics/SVG/1.1/DTD/svg11.dtd'><svg enable-background="new 0 0 48 48" height="48px" id="Layer_1" version="1.1" viewBox="0 0 48 48" width="48px" xml:space="preserve" xmlns="http://www.w3.org/2000/svg" xmlns:xlink="http://www.w3.org/1999/xlink"><g id="Layer_3"><polygon fill="#241F20" points="34.202,14.978 28.426,20.755 28.436,20.764 20.559,28.641 13.791,21.871 11.596,24.066    19.354,31.825 19.347,31.833 20.537,33.021 20.544,33.016 20.551,33.021 21.082,32.492 21.087,32.497 30.627,22.957 30.627,22.957    36.404,17.18  "/><path d="M24,0C10.745,0,0,10.745,0,24s10.745,24,24,24s24-10.745,24-24S37.255,0,24,0z M24,44   C12.954,44,4,35.046,4,24S12.954,4,24,4s20,8.954,20,20S35.046,44,24,44z" fill="#241F20"/></g></svg>